<svg width="512" height="512" viewBox="0 0 512 512" fill="none" xmlns="http://www.w3.org/2000/svg">
<g clip-path="url(#clip0_1_364)">
<rect width="512" height="512" rx="64" fill="#F8F6F1"/>
<path d="M259.184 73.1985L380.945 387.082C385.935 399.724 391.59 408.207 397.911 412.532C404.232 416.524 410.054 418.687 415.377 419.02V429C408.723 428.335 400.573 428.002 390.925 428.002C381.277 427.669 371.629 427.503 361.982 427.503C349.007 427.503 336.864 427.669 325.553 428.002C314.242 428.002 305.093 428.335 298.107 429V419.02C315.074 418.354 325.886 415.526 330.543 410.536C335.201 405.213 334.203 394.069 327.549 377.102L234.732 129.089L242.716 122.602L155.886 348.159C150.563 361.466 147.403 372.777 146.405 382.092C145.407 391.074 146.239 398.227 148.9 403.55C151.894 408.873 156.718 412.699 163.372 415.027C170.358 417.356 179.008 418.687 189.321 419.02V429C180.006 428.335 170.192 428.002 159.879 428.002C149.898 427.669 140.583 427.503 131.933 427.503C123.616 427.503 116.464 427.669 110.476 428.002C104.82 428.002 99.4971 428.335 94.5069 429V419.02C101.16 417.356 107.98 413.53 114.967 407.542C121.953 401.221 128.274 390.575 133.929 375.605L251.199 73.1985C252.53 73.1985 253.861 73.1985 255.191 73.1985C256.522 73.1985 257.853 73.1985 259.184 73.1985ZM320.064 285.282V295.263H171.356L176.346 285.282H320.064Z" fill="#332E28"/>
</g>
<defs>
<clipPath id="clip0_1_364">
<rect width="512" height="512" fill="white"/>
</clipPath>
</defs>
</svg>
